<?xml version="1.0" encoding="UTF-8" ?>
<!DOCTYPE svg PUBLIC "-//W3C//DTD SVG 1.1//EN" "http://www.w3.org/Graphics/SVG/1.1/DTD/svg11.dtd">
<svg width="596pt" height="596pt" viewBox="0 0 596 596" version="1.1" xmlns="http://www.w3.org/2000/svg">
<g id="#566066ff">
<path fill="#566066" opacity="1.00" d=" M 98.82 71.21 C 165.21 71.32 231.60 71.22 298.00 71.26 C 336.33 70.73 374.67 71.12 413.00 71.00 C 425.16 71.17 437.34 70.64 449.48 71.28 C 449.22 75.62 450.52 80.25 449.31 84.41 C 400.67 137.71 352.05 191.06 303.30 244.27 C 296.83 251.80 289.68 258.73 283.48 266.49 C 280.09 262.08 275.00 259.61 270.57 256.45 C 260.14 249.23 249.81 241.86 239.42 234.59 C 235.78 231.99 231.78 229.80 228.71 226.49 C 237.99 225.70 247.39 226.23 256.60 224.76 C 256.71 222.90 256.84 221.05 257.01 219.20 C 238.16 203.59 218.70 188.71 199.65 173.35 C 196.08 170.38 192.15 167.84 188.84 164.57 C 197.38 163.58 205.98 163.29 214.53 162.43 C 214.61 160.09 214.67 157.75 214.69 155.42 C 207.31 149.69 199.54 144.48 192.02 138.95 C 177.12 127.84 162.01 117.03 146.95 106.14 C 144.06 108.44 141.46 111.08 139.12 113.94 C 156.94 127.96 174.99 141.72 193.10 155.37 C 190.78 156.03 188.39 156.48 185.97 156.51 C 178.84 156.67 171.75 157.50 164.63 157.73 C 164.53 159.68 164.42 161.63 164.30 163.59 C 183.40 178.90 202.88 193.75 222.14 208.87 C 225.21 211.55 229.51 213.32 231.07 217.35 C 222.08 217.60 213.04 217.19 204.08 218.12 C 204.48 221.00 203.88 224.55 206.31 226.70 C 209.66 229.75 213.58 232.08 217.21 234.79 C 232.05 245.62 246.93 256.38 261.76 267.22 C 265.79 270.10 269.64 273.25 273.96 275.70 C 275.33 274.48 276.71 273.27 278.05 272.03 C 276.11 275.63 272.53 277.86 269.94 280.94 C 235.99 317.98 202.23 355.18 168.27 392.22 C 155.44 406.75 141.96 420.70 129.18 435.28 C 128.61 436.29 127.54 436.55 126.49 436.74 C 120.65 423.01 113.46 409.85 108.49 395.76 C 98.79 365.53 98.75 333.43 98.31 302.01 C 98.32 265.67 98.31 229.34 98.31 193.00 C 98.76 157.34 98.43 121.67 98.54 86.00 C 98.64 81.07 98.22 76.12 98.82 71.21 Z" />
<path fill="#566066" opacity="1.00" d=" M 440.45 242.46 C 443.53 239.25 446.08 235.50 449.67 232.82 C 449.96 253.88 449.30 274.95 449.60 296.01 C 449.91 300.05 448.48 303.95 448.71 307.98 C 448.71 326.66 448.98 345.35 448.35 364.02 C 445.66 383.94 442.34 404.24 433.35 422.43 C 429.88 429.88 424.07 435.77 419.36 442.40 C 413.34 450.63 407.90 459.39 400.57 466.58 C 386.28 481.22 367.23 489.77 348.58 497.42 C 325.77 505.81 301.09 507.10 277.01 506.54 C 269.63 506.65 262.35 505.24 254.97 505.17 C 239.27 503.20 223.43 501.54 208.05 497.74 C 210.57 494.10 214.17 491.38 217.01 488.00 C 292.03 406.64 366.07 324.40 440.45 242.46 Z" />
</g>
<g id="#e8caa4ff">
<path fill="#e8caa4" opacity="1.00" d=" M 410.66 145.66 C 429.81 124.83 448.59 103.65 467.95 83.03 C 478.11 106.25 487.65 129.75 497.71 153.02 C 498.18 154.66 499.80 156.73 498.19 158.24 C 387.62 279.96 277.20 401.85 166.61 523.58 C 166.30 523.59 165.70 523.60 165.40 523.61 C 151.25 504.06 137.26 484.39 123.11 464.85 C 122.43 464.02 121.93 462.59 122.81 461.73 C 218.83 356.43 314.70 250.99 410.66 145.66 Z" />
</g>
<g id="#f6f8f8ff">
<path fill="#f6f8f8" opacity="1.00" d=" M 139.12 113.94 C 141.46 111.08 144.06 108.44 146.95 106.14 C 162.01 117.03 177.12 127.84 192.02 138.95 C 199.54 144.48 207.31 149.69 214.69 155.42 C 214.67 157.75 214.61 160.09 214.53 162.43 C 205.98 163.29 197.38 163.58 188.84 164.57 C 192.15 167.84 196.08 170.38 199.65 173.35 C 218.70 188.71 238.16 203.59 257.01 219.20 C 256.84 221.05 256.71 222.90 256.60 224.76 C 247.39 226.23 237.99 225.70 228.71 226.49 C 231.78 229.80 235.78 231.99 239.42 234.59 C 249.81 241.86 260.14 249.23 270.57 256.45 C 275.00 259.61 280.09 262.08 283.48 266.49 C 281.63 268.30 279.88 270.20 278.05 272.03 C 276.71 273.27 275.33 274.48 273.96 275.70 C 269.64 273.25 265.79 270.10 261.76 267.22 C 246.93 256.38 232.05 245.62 217.21 234.79 C 213.58 232.08 209.66 229.75 206.31 226.70 C 203.88 224.55 204.48 221.00 204.08 218.12 C 213.04 217.19 222.08 217.60 231.07 217.35 C 229.51 213.32 225.21 211.55 222.14 208.87 C 202.88 193.75 183.40 178.90 164.30 163.59 C 164.42 161.63 164.53 159.68 164.63 157.73 C 171.75 157.50 178.84 156.67 185.97 156.51 C 188.39 156.48 190.78 156.03 193.10 155.37 C 174.99 141.72 156.94 127.96 139.12 113.94 Z" />
</g>
</svg>
